<svg aria-hidden="true" style="width:0;height:0;position:absolute;overflow:hidden" xmlns="http://www.w3.org/2000/svg"><defs><symbol id="icon-film" viewBox="0 0 32 32"><path fill="none" stroke="#818181" style="stroke:var(--color1,#818181)" stroke-linejoin="round" stroke-linecap="round" stroke-width="2.667" d="M26.427 2.667H5.574a2.907 2.907 0 0 0-2.907 2.907v20.853a2.907 2.907 0 0 0 2.907 2.907v0h20.853a2.907 2.907 0 0 0 2.907-2.907v0V5.574a2.907 2.907 0 0 0-2.907-2.907v0zm-17.094 0v26.667M22.667 2.667v26.667M2.667 16h26.667M2.667 9.333h6.667M2.667 22.667h6.667m13.333 0h6.667M22.667 9.333h6.667"/></symbol><symbol id="icon-search-2" viewBox="0 0 32 32"><path fill="none" stroke="#fff" style="stroke:var(--color2,#fff)" stroke-linejoin="round" stroke-linecap="round" stroke-width="2.667" d="M14.667 25.333c5.891 0 10.667-4.776 10.667-10.667S20.558 3.999 14.667 3.999v0C8.776 3.999 4 8.775 4 14.666s4.776 10.667 10.667 10.667v0zM28 28l-5.8-5.8"/></symbol><symbol id="icon-heart" viewBox="-1 0 16 13"><path fill="#FF6B08" stroke="#FF6B08" d="m7 12.88-.98-.98C2.38 8.68 0 6.51 0 3.85 0 1.68 1.68 0 3.85 0 5.04 0 6.23.56 7 1.47 7.77.56 8.96 0 10.15 0 12.32 0 14 1.68 14 3.85c0 2.66-2.38 4.83-6.02 8.05l-.98.98Z"/></symbol><symbol id="icon-close" viewBox="0 0 20 20"><path d="M10 8.586 2.929 1.515 1.515 2.929 8.586 10l-7.071 7.071 1.414 1.414L10 11.414l7.071 7.071 1.414-1.414L11.414 10l7.071-7.071-1.414-1.414L10 8.586z"/></symbol><symbol id="icon-up-arrow" viewBox="0 0 32 32"><path d="M31.574 22.244 17.028 7.699a1.454 1.454 0 0 0-2.057 0L.426 22.244a1.455 1.455 0 0 0 2.057 2.057L16 10.784l13.517 13.517c.284.284.656.426 1.029.426s.745-.142 1.029-.426a1.455 1.455 0 0 0 0-2.057z"/></symbol><symbol id="icon-youtube" viewBox="0 0 32 32"><path d="M25.354 4.678H6.646A6.647 6.647 0 0 0 0 11.324v9.352a6.646 6.646 0 0 0 6.646 6.646h18.708A6.647 6.647 0 0 0 32 20.676v-9.352a6.647 6.647 0 0 0-6.646-6.646zm-4.495 11.777-8.75 4.173a.351.351 0 0 1-.502-.317v-8.608a.35.35 0 0 1 .51-.313l8.75 4.434a.35.35 0 0 1-.008.63z"/></symbol><symbol id="moon" viewBox="0 0 32 32"><path d="M31.626 21.141a.351.351 0 0 0-.415-.022c-5.782 3.803-13.535 3.007-18.437-1.894S7.076 6.57 10.88.789a.35.35 0 0 0-.424-.517 16.237 16.237 0 0 0-5.435 3.6c-6.37 6.37-6.37 16.735 0 23.106 3.185 3.185 7.369 4.777 11.553 4.777s8.368-1.593 11.553-4.777a16.231 16.231 0 0 0 3.6-5.435.352.352 0 0 0-.103-.402z"/><path d="M27.292 14.309a5.794 5.794 0 0 1-3.648-3.648c-.095-.284-.347-.467-.645-.467s-.55.183-.644.467a5.795 5.795 0 0 1-3.648 3.647c-.284.095-.467.348-.467.645s.183.55.467.645a5.79 5.79 0 0 1 3.647 3.648c.095.284.347.467.644.467s.55-.183.645-.467a5.796 5.796 0 0 1 3.648-3.648c.284-.095.467-.347.467-.645s-.183-.55-.467-.645zM28.826 4.299a3.074 3.074 0 0 1-1.936-1.936.533.533 0 0 0-1.013.001 3.069 3.069 0 0 1-1.935 1.935.534.534 0 0 0-.001 1.012 3.076 3.076 0 0 1 1.936 1.936.535.535 0 0 0 .506.367h.001c.23 0 .433-.147.506-.366a3.076 3.076 0 0 1 1.936-1.936.534.534 0 0 0 0-1.013zM18.547 6.789a3.824 3.824 0 0 1-2.409-2.409.573.573 0 0 0-1.09 0 3.824 3.824 0 0 1-2.409 2.409.573.573 0 0 0 0 1.09 3.826 3.826 0 0 1 2.409 2.409.573.573 0 0 0 1.09 0 3.824 3.824 0 0 1 2.409-2.409.574.574 0 0 0 .001-1.09z"/></symbol><symbol id="sun" viewBox="0 0 32 32"><path d="M16 25.168c-5.055 0-9.168-4.113-9.168-9.168S10.945 6.832 16 6.832c5.055 0 9.168 4.113 9.168 9.168a9.157 9.157 0 0 1-1.288 4.689 9.22 9.22 0 0 1-7.88 4.48zM16 5.449a.7.7 0 0 1-.7-.7V.945a.7.7 0 0 1 1.4 0v3.804a.7.7 0 0 1-.7.7zM16 31.755a.7.7 0 0 1-.7-.7v-3.803a.7.7 0 0 1 1.4 0v3.803a.7.7 0 0 1-.7.7zM4.749 16.7H.945a.7.7 0 0 1 0-1.4h3.804a.7.7 0 0 1 0 1.4zM31.054 16.7h-3.803a.7.7 0 0 1 0-1.4h3.803a.7.7 0 0 1 0 1.4zM23.956 8.745a.7.7 0 0 1-.495-1.195l2.689-2.689a.7.7 0 0 1 .99.99L24.451 8.54a.697.697 0 0 1-.495.205zM5.355 27.345a.7.7 0 0 1-.495-1.195l2.689-2.689a.7.7 0 0 1 .99.99L5.85 27.14a.697.697 0 0 1-.495.205zM8.044 8.745a.696.696 0 0 1-.495-.205L4.86 5.851a.7.7 0 0 1 .99-.99L8.539 7.55a.7.7 0 0 1-.495 1.195zM26.645 27.345a.697.697 0 0 1-.495-.205l-2.689-2.689a.7.7 0 0 1 .99-.99l2.689 2.689a.7.7 0 0 1-.495 1.195zM11.695 6.306a.7.7 0 0 1-.647-.432L9.593 2.36a.7.7 0 0 1 1.294-.536l1.456 3.514a.7.7 0 0 1-.647.969zM21.761 30.609a.7.7 0 0 1-.647-.432l-1.455-3.514a.7.7 0 0 1 1.294-.536l1.455 3.514a.7.7 0 0 1-.646.969zM2.092 22.461a.7.7 0 0 1-.268-1.347l3.514-1.455a.7.7 0 0 1 .536 1.294L2.36 22.408a.704.704 0 0 1-.267.054zM26.395 12.395a.7.7 0 0 1-.268-1.347l3.514-1.456a.701.701 0 0 1 .536 1.294l-3.513 1.456a.708.708 0 0 1-.268.054zM20.305 6.306a.7.7 0 0 1-.647-.969l1.455-3.514a.7.7 0 1 1 1.294.536l-1.455 3.514a.7.7 0 0 1-.647.433zM10.238 30.609a.7.7 0 0 1-.647-.969l1.456-3.514a.7.7 0 0 1 1.294.536l-1.456 3.514a.7.7 0 0 1-.647.432zM5.605 12.395a.69.69 0 0 1-.268-.054l-3.514-1.456a.7.7 0 0 1 .536-1.294l3.514 1.456a.7.7 0 0 1-.268 1.347zM29.908 22.461a.69.69 0 0 1-.268-.054l-3.514-1.455a.7.7 0 0 1 .536-1.294l3.514 1.455a.7.7 0 0 1-.268 1.347z"/></symbol><symbol id="modal-close" viewBox="0 0 32 32"><path d="m26.667 7.303-1.97-1.97-7.808 7.808-7.808-7.808-1.97 1.97 7.808 7.808-7.808 7.808 1.97 1.97 7.808-7.808 7.808 7.808 1.97-1.97-7.808-7.808 7.808-7.808z"/></symbol></defs></svg>