<svg aria-hidden="true" style="position: absolute; width: 0; height: 0; overflow: hidden;" version="1.1"
  xmlns="http://www.w3.org/2000/svg"
  xmlns:xlink="http://www.w3.org/1999/xlink">
  <defs>
    <symbol id="icon-film" viewBox="0 0 32 32">
      <path fill="none" stroke="#818181" style="stroke: var(--color1, #818181)" stroke-linejoin="round" stroke-linecap="round" stroke-miterlimit="4" stroke-width="2.6667" d="M26.427 2.667h-20.853c-1.605 0-2.907 1.301-2.907 2.907v0 20.853c0 1.605 1.301 2.907 2.907 2.907v0h20.853c1.605 0 2.907-1.301 2.907-2.907v0-20.853c0-1.605-1.301-2.907-2.907-2.907v0zM9.333 2.667v26.667M22.667 2.667v26.667M2.667 16h26.667M2.667 9.333h6.667M2.667 22.667h6.667M22.667 22.667h6.667M22.667 9.333h6.667"></path>
    </symbol>
    <symbol id="icon-search-2" viewBox="0 0 32 32">
      <path fill="none" stroke="#fff" style="stroke: var(--color2, #fff)" stroke-linejoin="round" stroke-linecap="round" stroke-miterlimit="4" stroke-width="2.6667" d="M14.667 25.333c5.891 0 10.667-4.776 10.667-10.667s-4.776-10.667-10.667-10.667v0c-5.891 0-10.667 4.776-10.667 10.667s4.776 10.667 10.667 10.667v0zM28 28l-5.8-5.8"></path>
    </symbol>
    <symbol id="icon-heart" width="14" height="14" viewBox="-1 0 16 13">
      <path fill="#FF6B08" stroke="#FF6B08" d="M7 12.88L6.02 11.9C2.38 8.68 0 6.51 0 3.85C0 1.68 1.68 0 3.85 0C5.04 0 6.23 0.56 7 1.47C7.77 0.56 8.96 0 10.15 0C12.32 0 14 1.68 14 3.85C14 6.51 11.62 8.68 7.98 11.9L7 12.88Z" />
    </symbol>
    <symbol id="icon-close" viewBox="0 0 20 20">
      <path d="M10 8.586l-7.071-7.071-1.414 1.414 7.071 7.071-7.071 7.071 1.414 1.414 7.071-7.071 7.071 7.071 1.414-1.414-7.071-7.071 7.071-7.071-1.414-1.414-7.071 7.071z"></path>
    </symbol>
    <symbol id="icon-up-arrow" viewBox="0 0 32 32">
      <path d="M31.574 22.244l-14.546-14.545c-0.273-0.273-0.643-0.426-1.028-0.426s-0.756 0.153-1.029 0.426l-14.545 14.545c-0.568 0.568-0.568 1.489 0 2.057s1.489 0.568 2.057 0l13.517-13.517 13.517 13.517c0.284 0.284 0.656 0.426 1.029 0.426s0.745-0.142 1.029-0.426c0.568-0.568 0.568-1.489-0-2.057z"></path>
    </symbol>
    <symbol id="icon-youtube" viewBox="0 0 32 32">
      <path d="M25.354 4.678h-18.708c-3.67 0-6.646 2.976-6.646 6.646v9.352c0 3.67 2.975 6.646 6.646 6.646h18.708c3.67 0 6.646-2.976 6.646-6.646v-9.352c0-3.67-2.976-6.646-6.646-6.646zM20.859 16.455l-8.75 4.173c-0.233 0.111-0.502-0.059-0.502-0.317v-8.608c0-0.262 0.276-0.432 0.51-0.313l8.75 4.434c0.26 0.132 0.256 0.505-0.008 0.63z"></path>
    </symbol>
    <symbol id="moon" viewBox="0 0 32 32">
      <path d="M31.626 21.141c-0.118-0.097-0.286-0.106-0.415-0.022-5.782 3.803-13.535 3.007-18.437-1.894s-5.698-12.655-1.894-18.436c0.084-0.128 0.075-0.296-0.022-0.414s-0.259-0.161-0.402-0.103c-2.040 0.822-3.868 2.034-5.435 3.6-6.37 6.37-6.37 16.735 0 23.106 3.185 3.185 7.369 4.777 11.553 4.777s8.368-1.593 11.553-4.777c1.567-1.567 2.778-3.396 3.6-5.435 0.057-0.142 0.015-0.305-0.103-0.402z"></path>
      <path d="M27.292 14.309c-1.713-0.571-3.077-1.934-3.648-3.648-0.095-0.284-0.347-0.467-0.645-0.467s-0.55 0.183-0.644 0.467c-0.571 1.713-1.935 3.076-3.648 3.647-0.284 0.095-0.467 0.348-0.467 0.645s0.183 0.55 0.467 0.645c1.713 0.571 3.077 1.934 3.647 3.648h0c0.095 0.284 0.347 0.467 0.644 0.467s0.55-0.183 0.645-0.467c0.571-1.713 1.935-3.077 3.648-3.648 0.284-0.095 0.467-0.347 0.467-0.645s-0.183-0.55-0.467-0.645z"></path>
      <path d="M28.826 4.299c-0.909-0.303-1.633-1.026-1.936-1.936-0.073-0.219-0.276-0.366-0.506-0.366s-0.434 0.147-0.507 0.367c-0.302 0.909-1.026 1.633-1.935 1.935-0.219 0.073-0.367 0.276-0.367 0.506s0.147 0.433 0.366 0.506c0.909 0.303 1.633 1.027 1.936 1.936 0.073 0.219 0.276 0.366 0.506 0.367 0 0 0 0 0.001 0 0.23 0 0.433-0.147 0.506-0.366 0.303-0.909 1.027-1.633 1.936-1.936 0.219-0.073 0.366-0.277 0.366-0.506s-0.147-0.433-0.366-0.507z"></path>
      <path d="M18.547 6.789c-1.132-0.377-2.032-1.277-2.409-2.409-0.078-0.236-0.297-0.394-0.545-0.394s-0.466 0.159-0.545 0.394c-0.377 1.132-1.277 2.032-2.409 2.409-0.236 0.078-0.394 0.297-0.394 0.545s0.159 0.466 0.394 0.545c1.132 0.377 2.032 1.278 2.409 2.409 0.078 0.236 0.297 0.394 0.545 0.394s0.466-0.159 0.545-0.394c0.377-1.132 1.277-2.032 2.409-2.409 0.236-0.078 0.395-0.297 0.395-0.545s-0.159-0.466-0.394-0.545z"></path>
    </symbol>
    <symbol id="sun" viewBox="0 0 32 32">
      <path d="M16 25.168c-5.055 0-9.168-4.113-9.168-9.168s4.113-9.168 9.168-9.168c5.055 0 9.168 4.113 9.168 9.168 0 1.654-0.445 3.275-1.288 4.689-1.647 2.763-4.667 4.48-7.88 4.48z"></path>
      <path d="M16 5.449c-0.386 0-0.7-0.314-0.7-0.7v-3.804c0-0.387 0.314-0.7 0.7-0.7s0.7 0.314 0.7 0.7v3.804c0 0.386-0.314 0.7-0.7 0.7z"></path>
      <path d="M16 31.755c-0.386 0-0.7-0.314-0.7-0.7v-3.803c0-0.387 0.314-0.7 0.7-0.7s0.7 0.314 0.7 0.7v3.803c0 0.387-0.314 0.7-0.7 0.7z"></path>
      <path d="M4.749 16.7h-3.804c-0.387 0-0.7-0.314-0.7-0.7s0.314-0.7 0.7-0.7h3.804c0.386 0 0.7 0.314 0.7 0.7s-0.314 0.7-0.7 0.7z"></path>
      <path d="M31.054 16.7h-3.803c-0.387 0-0.7-0.314-0.7-0.7s0.314-0.7 0.7-0.7h3.803c0.387 0 0.7 0.314 0.7 0.7s-0.314 0.7-0.7 0.7z"></path>
      <path d="M23.956 8.745c-0.179 0-0.358-0.068-0.495-0.205-0.273-0.273-0.273-0.717 0-0.99l2.689-2.689c0.273-0.273 0.717-0.273 0.99 0s0.273 0.717 0 0.99l-2.689 2.689c-0.137 0.137-0.316 0.205-0.495 0.205z"></path>
      <path d="M5.355 27.345c-0.179 0-0.359-0.068-0.495-0.205-0.273-0.273-0.273-0.717 0-0.99l2.689-2.689c0.273-0.273 0.717-0.273 0.99 0s0.273 0.717 0 0.99l-2.689 2.689c-0.137 0.137-0.316 0.205-0.495 0.205z"></path>
      <path d="M8.044 8.745c-0.179 0-0.359-0.068-0.495-0.205l-2.689-2.689c-0.273-0.273-0.273-0.717 0-0.99s0.717-0.273 0.99 0l2.689 2.689c0.273 0.273 0.273 0.717 0 0.99-0.137 0.137-0.316 0.205-0.495 0.205z"></path>
      <path d="M26.645 27.345c-0.179 0-0.358-0.068-0.495-0.205l-2.689-2.689c-0.273-0.273-0.273-0.717 0-0.99s0.717-0.273 0.99 0l2.689 2.689c0.273 0.273 0.273 0.717 0 0.99-0.137 0.137-0.316 0.205-0.495 0.205z"></path>
      <path d="M11.695 6.306c-0.275 0-0.536-0.163-0.647-0.432l-1.455-3.514c-0.148-0.357 0.022-0.767 0.379-0.915s0.767 0.022 0.915 0.379l1.456 3.514c0.148 0.357-0.022 0.767-0.379 0.915-0.088 0.036-0.179 0.054-0.268 0.054z"></path>
      <path d="M21.761 30.609c-0.275 0-0.535-0.163-0.647-0.432l-1.455-3.514c-0.148-0.357 0.022-0.767 0.379-0.915 0.358-0.148 0.767 0.022 0.915 0.379l1.455 3.514c0.148 0.357-0.022 0.767-0.379 0.915-0.088 0.036-0.178 0.054-0.267 0.054z"></path>
      <path d="M2.092 22.461c-0.275 0-0.536-0.163-0.647-0.432-0.148-0.357 0.022-0.767 0.379-0.915l3.514-1.455c0.357-0.148 0.767 0.022 0.915 0.379s-0.022 0.767-0.379 0.915l-3.514 1.455c-0.088 0.036-0.178 0.054-0.267 0.054z"></path>
      <path d="M26.395 12.395c-0.275 0-0.535-0.163-0.647-0.432-0.148-0.357 0.022-0.767 0.379-0.915l3.514-1.456c0.357-0.148 0.766 0.022 0.915 0.379s-0.022 0.767-0.379 0.915l-3.513 1.456c-0.088 0.036-0.179 0.054-0.268 0.054z"></path>
      <path d="M20.305 6.306c-0.089 0-0.18-0.017-0.268-0.054-0.357-0.148-0.527-0.557-0.379-0.915l1.455-3.514c0.148-0.357 0.556-0.527 0.915-0.379 0.357 0.148 0.527 0.557 0.379 0.915l-1.455 3.514c-0.112 0.27-0.372 0.433-0.647 0.433z"></path>
      <path d="M10.238 30.609c-0.089 0-0.18-0.017-0.268-0.054-0.357-0.148-0.527-0.558-0.379-0.915l1.456-3.514c0.148-0.357 0.557-0.527 0.915-0.379s0.527 0.558 0.379 0.915l-1.456 3.514c-0.111 0.269-0.372 0.432-0.647 0.432z"></path>
      <path d="M5.605 12.395c-0.089 0-0.18-0.017-0.268-0.054l-3.514-1.456c-0.357-0.148-0.527-0.558-0.379-0.915s0.557-0.527 0.915-0.379l3.514 1.456c0.357 0.148 0.527 0.558 0.379 0.915-0.111 0.27-0.372 0.432-0.647 0.432z"></path>
      <path d="M29.908 22.461c-0.089 0-0.18-0.017-0.268-0.054l-3.514-1.455c-0.357-0.148-0.527-0.558-0.379-0.915s0.556-0.527 0.915-0.379l3.514 1.455c0.357 0.148 0.527 0.558 0.379 0.915-0.112 0.269-0.372 0.432-0.647 0.432z"></path>
    </symbol>
    <symbol id="modal-close" viewBox="0 0 32 32">
      <path d="M26.667 7.303l-1.97-1.97-7.808 7.808-7.808-7.808-1.97 1.97 7.808 7.808-7.808 7.808 1.97 1.97 7.808-7.808 7.808 7.808 1.97-1.97-7.808-7.808 7.808-7.808z"></path>
    </symbol>
  </defs>
</svg>